<svg version="1.1" viewBox="0 0 220 160" xmlns="http://www.w3.org/2000/svg">
<rect width="220" height="160" fill="#f9f9f9" stroke-linejoin="round" stroke-width="10.2" style="paint-order:markers stroke fill"/>
<g transform="matrix(3.72 0 0 3.72 43.6 64.8)" stroke-linecap="square">
<path d="m8.01 3.97a4 3.97 0 0 1-4 3.97 4 3.97 0 0 1-4-3.97 4 3.97 0 0 1 4-3.97 4 3.97 0 0 1 4 3.97z" fill="#a855f7" stroke-opacity=".78" stroke-width=".288" style="paint-order:stroke fill markers"/>
<g fill="#fff" stroke-width=".0277" style="paint-order:fill markers stroke" aria-label="₱">
<path d="m2.55 6.29h1v-1.24h0.568c0.939 0 1.69-0.509 1.83-1.4h0.626v-0.568h-0.626c-0.124-0.789-0.75-1.36-1.73-1.36h-1.67v1.36h-0.672v0.568h0.672zm0.979-2.08v-0.587h1.42c-0.0848 0.346-0.372 0.587-0.822 0.587zm0-1.63h0.581c0.444 0 0.731 0.183 0.829 0.541h-1.41z"/>
</g>
<g fill="#111827" stroke-width=".0234" style="paint-order:fill markers stroke" aria-label="PHSaver">
<path d="m10.1 6.01h0.849v-1.16h0.645c0.866 0 1.56-0.458 1.56-1.36v-0.011c0-0.794-0.557-1.33-1.48-1.33h-1.58zm0.849-1.91v-1.18h0.656c0.425 0 0.689 0.204 0.689 0.584v0.011c0 0.331-0.248 0.584-0.673 0.584z"/>
<path d="m13.7 6.01h0.849v-1.55h1.57v1.55h0.849v-3.86h-0.849v1.53h-1.57v-1.53h-0.849z"/>
<path d="m19.3 6.07c0.833 0 1.42-0.43 1.42-1.2v-0.011c0-0.673-0.441-0.948-1.22-1.16-0.667-0.176-0.833-0.248-0.833-0.507v-0.011c0-0.193 0.165-0.336 0.496-0.336s0.656 0.143 1 0.38l0.441-0.64c-0.397-0.314-0.866-0.491-1.43-0.491-0.794 0-1.35 0.463-1.35 1.16v0.011c0 0.761 0.496 0.987 1.28 1.18 0.645 0.16 0.777 0.276 0.777 0.491v0.011c0 0.226-0.204 0.364-0.557 0.364-0.441 0-0.799-0.182-1.15-0.469l-0.502 0.601c0.463 0.419 1.05 0.618 1.64 0.618z"/>
<path d="m22.2 6.07c0.414 0 0.689-0.149 0.893-0.375v0.32h0.81v-1.71c0-0.397-0.0992-0.722-0.32-0.943-0.215-0.215-0.535-0.331-0.998-0.331-0.502 0-0.822 0.0992-1.15 0.237l0.21 0.64c0.27-0.105 0.491-0.16 0.816-0.16 0.419 0 0.634 0.187 0.634 0.54v0.0496c-0.215-0.0717-0.419-0.121-0.722-0.121-0.7 0-1.19 0.303-1.19 0.943v0.011c0 0.59 0.458 0.904 1.01 0.904zm0.254-0.579c-0.27 0-0.458-0.132-0.458-0.358v-0.011c0-0.265 0.221-0.408 0.579-0.408 0.204 0 0.386 0.0441 0.535 0.11v0.149c0 0.309-0.259 0.518-0.656 0.518z"/>
<path d="m25.4 6.03h0.761l1.16-2.98h-0.871l-0.667 1.98-0.662-1.98h-0.888z"/>
<path d="m29.1 6.08c0.535 0 0.926-0.204 1.21-0.551l-0.48-0.425c-0.237 0.215-0.436 0.303-0.717 0.303-0.375 0-0.64-0.198-0.722-0.579h2.06c0.0055-0.0827 0.011-0.154 0.011-0.221 0-0.838-0.452-1.6-1.44-1.6-0.86 0-1.46 0.695-1.46 1.54v0.011c0 0.904 0.656 1.53 1.54 1.53zm-0.722-1.78c0.0662-0.38 0.287-0.629 0.64-0.629s0.573 0.254 0.623 0.629z"/>
<path d="m31.1 6.01h0.838v-1.09c0-0.711 0.342-1.04 0.899-1.04h0.0441v-0.877c-0.502-0.0221-0.772 0.248-0.943 0.651v-0.595h-0.838z"/>
</g>
</g>
</svg>
